# AST/ASF file generated using VICON BodyLanguage
# -----------------------------------------------
:version 1.10
:name VICON
:units
  mass 1.0
  length 0.45
  angle deg
:documentation
   .ast/.asf automatically generated from VICON data using
   VICON BodyBuilder and BodyLanguage model FoxedUp or BRILLIANT.MOD
:root
   order TX TY TZ RX RY RZ
   axis XYZ
   position 0 0 0  
   orientation 0 0 0 
:bonedata
  begin
     id 1 
     name lhipjoint
     direction 0.521452 -0.77106 0.36545 
     length 2.0933 
     axis 0 0 0  XYZ
  end
  begin
     id 2 
     name lfemur
     direction 0.34202 -0.939693 0  
     length 6.83441  
     axis 0 0 20  XYZ
    dof rx ry rz
    limits (-160.0 20.0)
           (-70.0 70.0)
           (-60.0 70.0)
  end
  begin
     id 3 
     name ltibia
     direction 0.34202 -0.939693 0   
     length 7.28749   
     axis 0 0 20   XYZ
    dof rx
    limits (-10.0 170.0)
  end
  begin
     id 4 
     name lfoot
     direction 0.100608 -0.276418 0.955757   
     length 1.52195   
     axis -90 7.62852e-016 20   XYZ
    dof rx rz
    limits (-45.0 90.0)
           (-70.0 20.0)
  end
  begin
     id 5 
     name ltoes
     direction 1.53558e-011 -4.21907e-011 1   
     length 0.770459   
     axis -90 7.62852e-016 20   XYZ
    dof rx
    limits (-90.0 20.0)
  end
  begin
     id 6 
     name rhipjoint
     direction -0.488071 -0.788702 0.373812   
     length 2.04648  
     axis 0 0 0  XYZ 
  end
  begin
     id 7 
     name rfemur
     direction -0.34202 -0.939693 0   
     length 6.92583   
     axis 0 0 -20   XYZ
    dof rx ry rz
    limits (-160.0 20.0)
           (-70.0 70.0)
           (-70.0 60.0)
  end
  begin
     id 8 
     name rtibia
     direction -0.34202 -0.939693 0   
     length 7.41043   
     axis 0 0 -20   XYZ
    dof rx
    limits (-10.0 170.0)
 end
 begin
     id 9 
     name rfoot
     direction -0.0784433 -0.215521 0.973343   
     length 1.67708  
     axis -90 -7.62852e-016 -20   XYZ
    dof rx rz
    limits (-45.0 90.0)
           (-20.0 70.0)
  end
  begin
     id 10 
     name rtoes
     direction -1.53551e-011 -4.21842e-011 1   
     length 0.849787   
     axis -90 -7.62852e-016 -20   XYZ
    dof rx
    limits (-90.0 20.0)
  end
  begin
     id 11 
     name lowerback
     direction -0.0122332 0.997575 -0.0685192   
     length 1.98724   
     axis 0 0 0   XYZ
    dof rx ry rz
    limits (-20.0 45.0)
           (-30.0 30.0)
           (-30.0 30.0)
  end
  begin
     id 12 
     name upperback
     direction 0.0182347 0.999724 -0.0148421   
     length 1.99029   
     axis 0 0 0   XYZ
    dof rx ry rz
    limits (-20.0 45.0)
           (-30.0 30.0)
           (-30.0 30.0)
  end
  begin
     id 13 
     name thorax
     direction 0.0242908 0.99956 0.0170184   
     length 1.99573   
     axis 0 0 0   XYZ
    dof rx ry rz
    limits (-20.0 45.0)
           (-30.0 30.0)
           (-30.0 30.0)
  end
  begin
     id 14 
     name lowerneck
     direction 0.0654488 0.985533 0.156338   
     length 1.4285   
     axis 0 0 0   XYZ
    dof rx ry rz
    limits (-20.0 45.0)
           (-30.0 30.0)
           (-30.0 30.0)
  end
  begin
     id 15 
     name upperneck
     direction -0.02953 0.998556 -0.0448842   
     length 1.44709   
     axis 0 0 0   XYZ
    dof rx ry rz
    limits (-20.0 45.0)
           (-30.0 30.0)
           (-30.0 30.0)
  end
  begin
     id 16
     name head
     direction -0.0155588 0.999386 -0.0314063  
     length 1.44689  
     axis 0 0 0   XYZ
    dof rx ry rz
    limits (-20.0 45.0)
           (-30.0 30.0)
           (-30.0 30.0)
  end
  begin
     id 17 
     name lclavicle
     direction 0.968229 0.236071 -0.0824755  
     length 3.60593  
     axis 0 0 0   XYZ
    dof ry rz
    limits (-20.0 10.0)
           (0.0 20.0)
  end
  begin
     id 18 
     name lhumerus
     direction 1 -4.48968e-011 7.8138e-029   
     length 5.06035   
     axis 180 -30 -90   XYZ
    dof rx ry rz
    limits (-60.0 90.0)
           (-90.0 90.0)
           (-90.0 90.0)
  end
  begin
     id 19
     name lradius
     direction 1 -4.48967e-011 9.02887e-028   
     length 3.1478   
     axis 180 -30 -90   XYZ
    dof rx
    limits (-10.0 170.0)
  end
  begin
     id 20
     name lwrist
     direction 1 -4.48961e-011 7.20928e-028   
     length 1.5739   
     axis -5.52449e-016 90 90   XYZ
    dof ry
    limits (-180.0 0.0)
 end
  begin
     id 21 
     name lhand
     direction 1 -4.48972e-011 1.44186e-027   
     length 0.606747   
     axis -9.20027e-016 90 90   XYZ
    dof rx rz
    limits (-90.0 90.0)
           (-45.0 45.0)
  end
  begin
     id 22 
     name lfingers
     direction 1 -4.48943e-011 2.88371e-027   
     length 0.489175   
     axis -1.84005e-015 90 90   XYZ
    dof rx
    limits (0.0 90.0)
  end
  begin
     id 23
     name lthumb
     direction 0.707107 -6.34917e-011 0.707107   
     length 0.70236   
     axis -90 45 2.85299e-015   XYZ
    dof rx rz
    limits (-45.0 45.0)
           (-45.0 45.0)
  end
  begin
     id 24 
     name rclavicle
     direction -0.978165 0.207816 0.0022268   
     length 3.35425  
     axis 0 0 0   XYZ 
    dof ry rz
    limits (-10.0 20.0)
           (-20.0 0.0)
  end
  begin
     id 25 
     name rhumerus
     direction -1 -4.48964e-011 -4.02159e-027  
     length 5.12273   
     axis 180 30 90   XYZ
    dof rx ry rz
    limits (-90.0 60.0)
           (-90.0 90.0)
           (-90.0 90.0)
  end
  begin
     id 26 
     name rradius
     direction -1 -4.48966e-011 1.62746e-027   
     length 3.422   
     axis 180 30 90   XYZ
    dof rx
    limits (-10.0 170.0)
  end
  begin
     id 27 
     name rwrist
     direction -1 -4.4896e-011 7.20928e-028   
     length 1.711   
     axis -5.52449e-016 -90 -90   XYZ
    dof ry
    limits (-180.0 0.0)
  end
  begin
     id 28
     name rhand
     direction -1 -4.48979e-011 1.44186e-027   
     length 0.704599   
     axis -9.20027e-016 -90 -90   XYZ
    dof rx rz
    limits (-90.0 90.0)
           (-45.0 45.0)
  end
  begin
     id 29
     name rfingers
     direction -1 -4.48962e-011 2.88371e-027   
     length 0.568066   
     axis -1.84005e-015 -90 -90   XYZ
    dof rx
    limits (0.0 90.0)
  end
  begin
     id 30
     name rthumb
     direction -0.707107 -6.34949e-011 0.707107   
     length 0.815633   
     axis -90 -45 -2.85299e-015   XYZ
    dof rx rz
    limits (-45.0 45.0)
           (-45.0 45.0)
  end
:hierarchy
  begin
    root lhipjoint rhipjoint lowerback
    lhipjoint lfemur
    lfemur ltibia
    ltibia lfoot
    lfoot ltoes
    rhipjoint rfemur
    rfemur rtibia
    rtibia rfoot
    rfoot rtoes
    lowerback upperback
    upperback thorax
    thorax lowerneck lclavicle rclavicle
    lowerneck upperneck
    upperneck head
    lclavicle lhumerus
    lhumerus lradius
    lradius lwrist
    lwrist lhand lthumb
    lhand lfingers
    rclavicle rhumerus
    rhumerus rradius
    rradius rwrist
    rwrist rhand rthumb
    rhand rfingers
  end

#!OML:ASF E:\id_vita\Project 1\Capture day 1\Session 1\Male1.ASF
:FULLY-SPECIFIED
:DEGREES
336
root 8.6241 15.967 1.9937 200.193 -74.9796 -197.294
lowerback 2.08752 -3.90129 -4.91116
upperback 0.814696 -5.34573 -1.84521
thorax -0.0593162 -2.69805 0.941646
lowerneck -5.32618 -3.4501 -3.2851
upperneck -10.8111 -5.10018 -1.174
head -2.46602 -2.5867 0.213542
rclavicle -3.39425e-014 -2.50469e-014
rhumerus -32.9051 -13.8342 -80.9665
rradius 19.3354
rwrist 10.6018
rhand -20.4606 36.1928
rfingers 7.12502
rthumb 5.89511 6.29485
lclavicle -3.39425e-014 -2.50469e-014
lhumerus -24.7045 19.9793 76.4347
lradius 22.0969
lwrist -6.24948
lhand -13.8906 45.9952
lfingers 7.12502
lthumb 12.2346 75.6174
rfemur -28.6864 2.66214 14.7895
rtibia 67.3037
rfoot -12.6173 1.66423
rtoes 10.468
lfemur -17.8336 4.2072 -30.456
ltibia 35.9107
lfoot -21.3867 -5.46148
ltoes 43.5198
337
root 8.49378 15.9455 1.99922 202.053 -75.0984 -199.093
lowerback 2.00541 -4.05819 -5.16161
upperback 0.855779 -5.55697 -1.96076
thorax 0.052008 -2.80863 0.95347
lowerneck -6.21102 -3.56439 -2.80627
upperneck -10.0583 -5.25724 -1.85169
head -2.09498 -2.68544 -0.108421
rclavicle 8.1949e-014 1.19271e-014
rhumerus -33.0375 -12.8233 -81.3705
rradius 19.7016
rwrist 9.8712
rhand -20.3259 36.414
rfingers 7.12502
rthumb 6.02516 6.5197
lclavicle 8.1949e-014 1.19271e-014
lhumerus -24.0208 19.2898 76.8772
lradius 22.9786
lwrist -5.26825
lhand -14.0953 45.9615
lfingers 7.12502
lthumb 12.0372 75.5953
rfemur -29.7945 2.45744 14.4196
rtibia 65.9902
rfoot -13.4866 1.59899
rtoes 11.6481
lfemur -17.406 3.85473 -31.0495
ltibia 36.017
lfoot -21.8813 -5.67325
ltoes 44.4274
338
root 8.35427 15.9386 1.9794 199.388 -75.3708 -196.682
lowerback 2.23377 -4.10076 -4.72514
upperback 1.05166 -5.60565 -1.73385
thorax 0.109736 -2.83376 0.955303
lowerneck -5.24091 -3.47427 -3.89143
upperneck -11.0774 -5.08059 -0.486889
head -2.53767 -2.57003 0.537326
rclavicle -6.04802e-014 -8.34896e-015
rhumerus -33.1846 -12.3342 -81.4943
rradius 19.9131
rwrist 9.78436
rhand -20.3329 36.6096
rfingers 7.12502
rthumb 6.01845 6.71508
lclavicle -6.04802e-014 -8.34896e-015
lhumerus -23.2784 18.645 77.2832
lradius 23.6652
lwrist -4.2333
lhand -14.1725 45.8128
lfingers 7.12502
lthumb 11.9628 75.451
rfemur -30.2664 3.12243 15.585
rtibia 64.3223
rfoot -13.7702 0.481136
rtoes 11.4415
lfemur -16.493 3.96218 -30.2408
ltibia 36.0248
lfoot -22.2691 -5.76447
ltoes 44.4444
339
root 8.22471 15.9244 1.97781 202.411 -75.4615 -199.541
lowerback 2.20022 -4.25691 -5.41747
upperback 0.978749 -5.83324 -1.83796
thorax 0.123319 -2.95081 1.22861
lowerneck -6.55732 -3.58408 -3.08607
upperneck -9.81466 -5.2228 -1.53313
head -1.94017 -2.67029 0.0248116
rclavicle -2.25124e-014 -1.11319e-014
rhumerus -33.4313 -11.9181 -81.4868
rradius 20.1794
rwrist 9.72489
rhand -20.3182 36.5631
rfingers 7.12502
rthumb 6.03261 6.66897
lclavicle -2.25124e-014 -1.11319e-014
lhumerus -22.5173 17.8667 77.7278
lradius 24.32
lwrist -3.18238
lhand -14.0962 46.0678
lfingers 7.12502
lthumb 12.0364 75.7017
rfemur -31.3973 2.7986 14.9565
rtibia 62.6149
rfoot -14.4187 0.4296
rtoes 11.1979
lfemur -16.0642 3.7767 -31.1019
ltibia 35.8211
lfoot -22.6121 -5.86758
ltoes 43.9699
340
root 8.08346 15.9158 1.96973 204.359 -75.4293 -201.468
lowerback 2.2645 -4.34115 -5.98421
upperback 0.887866 -5.96946 -1.88925
thorax 0.0543929 -3.01859 1.49511
lowerneck -5.42863 -3.58014 -3.69923
upperneck -10.9681 -5.23451 -0.662566
head -2.47518 -2.65409 0.443701
rclavicle 5.99833e-014 4.77083e-015
rhumerus -33.7297 -12.0235 -81.1744
rradius 20.0729
rwrist 10.1036
rhand -20.0647 36.7825
rfingers 7.12502
rthumb 6.27731 6.8955
lclavicle 5.99833e-014 4.77083e-015
lhumerus -22.0672 16.894 78.1326
lradius 25.1597
lwrist -2.18592
lhand -14.143 46.3014
lfingers 7.12502
lthumb 11.9912 75.9379
rfemur -32.1469 2.76444 14.572
rtibia 60.6808
rfoot -15.1098 0.324122
rtoes 10.431
lfemur -15.3607 3.72618 -31.7307
ltibia 35.4769
lfoot -23.0933 -5.72561
ltoes 42.7111
341
root 7.95117 15.9145 1.95723 205.168 -75.6557 -202.368
lowerback 2.27204 -4.41301 -6.17494
upperback 1.07462 -6.06401 -1.92777
thorax 0.265055 -3.07667 1.54978
lowerneck -5.74015 -3.78439 -3.67132
upperneck -10.9583 -5.49904 -0.572008
head -2.41235 -2.79566 0.459818
rclavicle 4.62174e-015 7.95139e-015
rhumerus -33.6919 -12.2487 -81.0454
rradius 19.9389
rwrist 10.3835
rhand -19.9078 37.358
rfingers 7.12502
rthumb 6.42883 7.47556
lclavicle 4.62174e-015 7.95139e-015
lhumerus -21.3038 15.8638 78.557
lradius 26.1363
lwrist -1.29781
lhand -14.0562 46.4104
lfingers 7.12502
lthumb 12.0749 76.042
rfemur -32.6051 2.95881 14.617
rtibia 58.6052
rfoot -15.5507 0.0857773
rtoes 11.4849
lfemur -14.4665 3.55577 -31.8975
ltibia 34.9145
lfoot -23.3072 -5.64777
ltoes 42.0468
342
root 7.81624 15.922 1.94656 206.59 -75.9411 -203.821
lowerback 2.41656 -4.56713 -6.47506
upperback 1.12064 -6.2882 -1.96647
thorax 0.275997 -3.19223 1.6833
lowerneck -5.91473 -3.77651 -3.58915
upperneck -10.9758 -5.47213 -0.373077
head -2.38431 -2.79219 0.504544
rclavicle 2.99668e-014 2.06736e-014
rhumerus -34.0378 -11.3997 -81.3393
rradius 20.4862
rwrist 9.6909
rhand -19.8428 37.7119
rfingers 7.12502
rthumb 6.4916 7.83138
lclavicle 2.99668e-014 2.06736e-014
lhumerus -20.7107 15.1683 78.8279
lradius 27.0178
lwrist -0.593053
lhand -13.7481 46.8371
lfingers 7.12502
lthumb 12.3719 76.451
rfemur -33.065 2.98867 14.5044
rtibia 56.2963
rfoot -15.3016 0.611055
rtoes 16.8305
lfemur -13.5812 3.18469 -32.1374
ltibia 34.2776
lfoot -23.3248 -6.08047
ltoes 43.318
